<svg xmlns="http://www.w3.org/2000/svg" viewBox="0 0 45.93 49.8"><defs><style>.cls-1{fill:#fff;}.cls-2{fill:red;}</style></defs><title>check</title><g id="Layer_2" data-name="Layer 2"><g id="Layer_1-2" data-name="Layer 1"><rect class="cls-1" y="18.8" width="31" height="31"/><path class="cls-2" d="M15,46.8c-.62-1.09-1.23-2.19-1.86-3.27-1.22-2.08-2.42-4.17-3.71-6.2A15.44,15.44,0,0,0,7.46,35a4.69,4.69,0,0,0-2.71-1.41l4.75-7c2.72,1.84,4.39,4.48,5.89,7.39l1.35-2.51A80.12,80.12,0,0,1,33,10.23,145.69,145.69,0,0,1,45.82,0s0,0,.11,0L42,4.12A114.94,114.94,0,0,0,29.36,19.45a136.79,136.79,0,0,0-9.81,17.43c-1.52,3.19-2.94,6.41-4.41,9.62a1.46,1.46,0,0,0-.07.3Z"/></g></g></svg>